<svg width="85" height="77" xmlns="http://www.w3.org/2000/svg">
 <style type="text/css">.st0{fill:none;stroke:#000000;stroke-width:2;stroke-linecap:round;stroke-linejoin:round;stroke-miterlimit:10;}
	.st1{fill:none;stroke:#000000;stroke-width:2;stroke-miterlimit:10;}
	.st2{fill:none;stroke:#000000;stroke-width:1.7;stroke-linecap:round;stroke-linejoin:round;stroke-miterlimit:10;}</style>

 <g>
  <title>background</title>
  <rect fill="none" id="canvas_background" height="79" width="87" y="-1" x="-1"/>
 </g>
 <g>
  <title>Layer 1</title>
  <path id="svg_1" d="m53.60405,0c-0.3,0 -0.6,0.1 -0.8,0.3c-0.2,0.2 -0.3,0.5 -0.3,0.7c0,6 -4.9,10.9 -10.9,10.9s-10.9,-4.9 -10.9,-10.9c0,-0.3 -0.1,-0.6 -0.3,-0.7c-0.2,-0.2 -0.5,-0.3 -0.8,-0.3c-0.6,0.1 -14.9,1.7 -29.3,15.1c-0.3,0.3 -0.4,0.8 -0.2,1.1l8.9,19.4c0.1,0.3 0.4,0.5 0.7,0.6c0.3,0.1 0.6,0 0.9,-0.3c0.1,0 5,-4.6 9.6,-5.6l-1.2,44c0,0.3 0.1,0.5 0.3,0.7s0.4,0.3 0.7,0.3c0,0 0,0 0,0l43.8,0c0.3,0 0.5,-0.1 0.7,-0.3c0.2,-0.2 0.3,-0.5 0.3,-0.7l-1.1,-43.9c4.6,1 9.5,5.6 9.6,5.6c0.2,0.2 0.6,0.3 0.9,0.3c0.3,-0.1 0.6,-0.3 0.7,-0.6l8.7,-19.4c0.2,-0.4 0.1,-0.9 -0.2,-1.1c-14.4,-13.5 -29.1,-15.1 -29.8,-15.2zm-43.4,33.7l-8,-17.6c1.1,-1 2.1,-1.9 3.2,-2.7l7.9,17.9c-1.3,0.9 -2.4,1.7 -3.1,2.4zm11,28.4l41.2,0l0.1,3.6l-41.4,0l0.1,-3.6zm-0.3,11.3l0.2,-5.7l41.5,0l0.1,5.7l-41.8,0zm41.8,-45.2c-0.3,0 -0.6,0.1 -0.8,0.3c-0.2,0.2 -0.3,0.5 -0.3,0.8l0.8,30.8l-41.1,0l0.8,-30.8c0,-0.3 -0.1,-0.6 -0.3,-0.8c-0.2,-0.2 -0.4,-0.3 -0.7,-0.3c0,0 -0.1,0 -0.1,0c-2,0.2 -4.1,1 -6,2.1l-8,-18.2c9.8,-7.3 18.7,-9.4 21.7,-9.9c0.6,6.6 6.1,11.8 12.9,11.8c6.7,0 12.3,-5.2 12.9,-11.8c3,0.5 11.9,2.6 21.6,9.6l-8,18.3c-1.7,-1 -3.6,-1.7 -5.4,-1.9zm10.8,5.5c-0.8,-0.7 -2.1,-1.7 -3.7,-2.7l7.9,-18c1.2,1 2.5,2 3.7,3.1l-7.9,17.6z"/>
  <path id="svg_2" d="m45.48705,33.66513c1.9,-1.3 3.2,-3.4 3.2,-5.9c0,-3.9 -3.1,-7 -7,-7s-7,3.1 -7,7c0,2.5 1.3,4.6 3.2,5.9c-3,1.4 -5.1,4.5 -5.1,8c0,4.9 4,8.9 8.9,8.9s8.9,-4 8.9,-8.9c0,-3.6 -2.1,-6.6 -5.1,-8zm-8.8,-5.9c0,-2.8 2.2,-5 5,-5s5,2.2 5,5c0,2.8 -2.2,5 -5,5s-5,-2.3 -5,-5zm5,20.7c-3.8,0 -6.9,-3.1 -6.9,-6.9c0,-3.8 3.1,-6.9 6.9,-6.9s6.9,3.1 6.9,6.9c0,3.8 -3.1,6.9 -6.9,6.9z"/>
 </g>
</svg>