<svg width="87" height="86" xmlns="http://www.w3.org/2000/svg">
 <title>Artboard 447</title>

 <g>
  <title>background</title>
  <rect fill="none" id="canvas_background" height="88" width="89" y="-1" x="-1"/>
 </g>
 <g>
  <title>Layer 1</title>
  <path fill="#f20000" id="svg_1" d="m63.00218,81.35c2.92,0 5.54,0 8.7,-0.2a14.78,14.78 0 0 0 9.71,-4.5a14.53,14.53 0 0 0 4.09,-9.53a44.22,44.22 0 0 0 -0.3,-4.52l-0.45,-4.27l0,0c0,-0.38 -0.81,-0.68 -1.75,-0.68l0,0c0,-0.93 -0.17,-1.7 -0.4,-1.73l-0.06,0a120.34,120.34 0 0 0 -16.52,-1.85q-0.4,-6.6 -1.06,-13.2l10,-0.13l0.1,0a3,3 0 0 0 3,-3.08a38.56,38.56 0 0 0 -11,-26.32a37.75,37.75 0 0 0 -25.61,-11.34l0,0c-1.39,0 -2.46,0.71 -2.45,1.65a2.25,2.25 0 0 0 2.22,1.88l0.34,0a34.09,34.09 0 0 1 22,11.34a33.67,33.67 0 0 1 8.31,19.62l-32.82,-0.43l0,0a3.51,3.51 0 0 0 -3.53,3.49l0,0.1l-0.14,22.45l0,5.6a12.56,12.56 0 0 1 -0.78,4.21a12.34,12.34 0 0 1 -5.48,6.45a12.39,12.39 0 0 1 -15.68,-2.9a12.67,12.67 0 0 1 -2.89,-8.15l-0.13,-11.22l0,-0.14a2.84,2.84 0 0 0 -0.37,-1.39a33.35,33.35 0 0 1 0.08,-31.33a34.06,34.06 0 0 1 26.62,-17.75a2.19,2.19 0 0 0 2.25,-1.83c0,-0.93 -1.06,-1.64 -2.44,-1.61l-0.38,0a38,38 0 0 0 -30.92,18.7a38.87,38.87 0 0 0 -1.6,36l-0.12,10.58a19.58,19.58 0 1 0 39.21,0.41l0,-5.79a120.64,120.64 0 0 0 16.92,1.39c-0.22,5.44 -0.34,10.88 -0.31,16.32l0,0.08a3.67,3.67 0 0 0 3.64,3.62zm18.11,-21.7l-0.31,3c-0.14,1.36 -0.23,3 -0.43,4a9.61,9.61 0 0 1 -3.33,5.42a8.89,8.89 0 0 1 -5.67,2l-4.69,-0.08q0,-6.39 -0.29,-12.78a122.68,122.68 0 0 0 14.72,-1.56zm-38.44,-4.29l-0.09,-14.2l18.46,-0.24c-0.44,4.34 -0.78,8.69 -1.05,13a120.25,120.25 0 0 0 -17.32,1.44z"/>
  <circle stroke="null" id="svg_2" r="4" cy="69.80851" cx="22.95517"/>
 </g>
</svg>