<svg width="52" height="77" xmlns="http://www.w3.org/2000/svg">
 <style type="text/css">.st0{fill:none;stroke:#000000;stroke-width:2;stroke-linecap:round;stroke-linejoin:round;stroke-miterlimit:10;}
	.st1{fill:none;stroke:#000000;stroke-width:2;stroke-miterlimit:10;}
	.st2{fill:none;stroke:#000000;stroke-width:1.7;stroke-linecap:round;stroke-linejoin:round;stroke-miterlimit:10;}</style>

 <g>
  <title>background</title>
  <rect fill="none" id="canvas_background" height="79" width="54" y="-1" x="-1"/>
 </g>
 <g>
  <title>Layer 1</title>
  <path fill="#dddd04" id="svg_1" d="m50.6,0c-0.6,0 -1,0.4 -1,1l0,43.5l-47.6,0l0,-43.3c0,-0.6 -0.4,-1 -1,-1s-1,0.4 -1,1l0,44.3c0,0.6 0.4,1 1,1l23.8,0l0,10.9l-2.1,0c-0.6,0 -1,0.4 -1,1l0,17.5c0,0.6 0.4,1 1,1l6.2,0c0.6,0 1,-0.4 1,-1l0,-17.5c0,-0.6 -0.4,-1 -1,-1l-2.1,0l0,-10.9l23.8,0c0.6,0 1,-0.4 1,-1l0,-44.5c0,-0.6 -0.4,-1 -1,-1zm-22.6,74.9l-4.3,0l0,-15.5l4.2,0l0,15.5l0.1,0z"/>
 </g>
</svg>